  <svg width="16" height="15" viewBox="0 0 16 15" fill="none" xmlns="http://www.w3.org/2000/svg">
<path d="M15.1047 6.66061C15.3624 6.66061 15.5727 6.74328 15.7355 6.90861C15.9118 7.06123 16 7.25836 16 7.5C16 7.74164 15.9118 7.94513 15.7355 8.11047C15.5727 8.26308 15.3624 8.33939 15.1047 8.33939H8.89535V14.1415C8.89535 14.3832 8.80717 14.5867 8.63081 14.752C8.46802 14.9173 8.25775 15 8 15C7.74225 15 7.52519 14.9173 7.34884 14.752C7.18605 14.5867 7.10465 14.3832 7.10465 14.1415V8.33939H0.895349C0.637597 8.33939 0.420543 8.26308 0.244186 8.11047C0.0813953 7.94513 0 7.74164 0 7.5C0 7.25836 0.0813953 7.06123 0.244186 6.90861C0.420543 6.74328 0.637597 6.66061 0.895349 6.66061H7.10465V0.839389C7.10465 0.597747 7.18605 0.400618 7.34884 0.248002C7.52519 0.0826673 7.74225 0 8 0C8.25775 0 8.46802 0.0826673 8.63081 0.248002C8.80717 0.400618 8.89535 0.597747 8.89535 0.839389V6.66061H15.1047Z" fill="url(#paint0_linear)"/>
<defs>
<linearGradient id="paint0_linear" x1="16" y1="15" x2="5.92794" y2="-3.26831" gradientUnits="userSpaceOnUse">
<stop stop-color="#15B6D6"/>
<stop offset="1" stop-color="#15D6D6"/>
</linearGradient>
</defs>
</svg>
